<svg width="500" height="308" viewBox="0 0 500 308" fill="none" xmlns="http://www.w3.org/2000/svg">
<path d="M143.14 108.94H379.8V233.39C379.8 239.19 375.09 243.9 369.29 243.9H143.14V108.94Z" fill="#ECEBFF"/>
<path d="M234.49 129.42H165.53C163.857 129.42 162.5 130.777 162.5 132.45V164.58C162.5 166.253 163.857 167.61 165.53 167.61H234.49C236.163 167.61 237.52 166.253 237.52 164.58V132.45C237.52 130.777 236.163 129.42 234.49 129.42Z" fill="#D2D4EA"/>
<path d="M231.29 129.77H165.84C164.06 129.77 162.62 131.21 162.62 132.99V164.75C162.62 166.53 164.06 167.97 165.84 167.97H226.47" stroke="#2F3197" stroke-width="0.54" stroke-linecap="round" stroke-linejoin="round"/>
<path d="M234.48 197.03H164.85C163.17 197.03 161.81 196.16 161.81 195.09C161.81 194.02 163.17 193.15 164.85 193.15H234.48C236.16 193.15 237.52 194.02 237.52 195.09C237.52 196.16 236.16 197.03 234.48 197.03Z" fill="#D2D4EA"/>
<path d="M234.48 209.25H164.85C163.17 209.25 161.81 208.38 161.81 207.31C161.81 206.24 163.17 205.37 164.85 205.37H234.48C236.16 205.37 237.52 206.24 237.52 207.31C237.52 208.38 236.16 209.25 234.48 209.25Z" fill="#D2D4EA"/>
<path d="M153.34 80.87H369.35C375.08 80.87 379.74 85.52 379.74 91.26V108.92H143.32V90.89C143.32 85.36 147.81 80.87 153.34 80.87Z" fill="#2F3197"/>
<path d="M379.73 122.79V233.19C379.73 239.09 374.95 243.88 369.04 243.88H154.01C148.11 243.88 143.32 239.1 143.32 233.19V91.55C143.32 85.65 148.1 80.86 154.01 80.86H369.05C374.95 80.86 379.74 85.64 379.74 91.55V108.87" stroke="#2F3197" stroke-width="0.54" stroke-miterlimit="10"/>
<path d="M369.47 150V210.43C369.47 213.66 367.02 216.28 364 216.28H253.82C250.8 216.28 248.35 213.66 248.35 210.43V132.9C248.35 129.67 250.8 127.05 253.82 127.05H364C367.02 127.05 369.47 129.67 369.47 132.9V142.38" fill="#D2D4EA"/>
<path d="M369.47 150V210.43C369.47 213.66 367.02 216.28 364 216.28H253.82C250.8 216.28 248.35 213.66 248.35 210.43V188.36" stroke="#2F3197" stroke-width="0.54" stroke-linecap="round" stroke-linejoin="round"/>
<path d="M248.34 156.11V132.91C248.34 129.68 250.79 127.06 253.81 127.06H363.99C367.01 127.06 369.46 129.68 369.46 132.91V142.39" stroke="#2F3197" stroke-width="0.54" stroke-linecap="round" stroke-linejoin="round"/>
<path d="M38.87 202.51L43.07 212.76L38.65 223.66L46.75 232.45L57.73 227.5L68.32 232.31L72.39 243.22H83.97L88.35 232.27L99.02 227.5L106.24 230.81L108.07 227.02L112.79 228.79L117.84 223.82L113.25 212.9L118.44 202.38L129.36 198.16V186.53L117.79 181.84L113.24 171.51L117.79 161L109.6 152.84L98.83 157.5L88.39 153.38L84.03 142.61H72.19L67.78 153.37L57.32 157.3L46.84 152.77L38.75 161.15L43.53 171.72L39.08 182.15L28.77 186.6V198.35L38.86 202.53L38.87 202.51ZM59.39 192.45C59.39 182.08 67.79 173.68 78.16 173.68C88.53 173.68 96.93 182.08 96.93 192.45C96.93 202.82 88.53 211.22 78.16 211.22C67.79 211.22 59.39 202.82 59.39 192.45Z" fill="#4F69A6"/>
<path d="M209.41 156.69C209.41 156.69 206.47 158.83 198.24 160.49C190.01 162.15 186.32 160.17 186.32 160.17C186.32 160.17 186.61 162.11 187.11 168.5C187.6 174.88 186 180.18 184.34 185.64C182.69 191.1 178.75 195.42 169.49 197.19C160.24 198.95 149.19 197.08 149.19 197.08L126.66 197.57C126.66 197.57 114.53 197.97 104.04 205.17C93.54 212.37 92.2 219.8 90.71 229.48C89.04 240.32 88.31 257.2 87.65 273.57C87.34 281.31 87.38 283.82 87.47 284.54C87.51 284.54 87.55 284.54 87.6 284.55C87.64 284.55 87.68 284.57 87.72 284.57L113.29 284.52C113.29 284.52 113.4 284.46 113.45 284.46C113.88 284.46 114.31 284.46 114.74 284.52L152.01 284.45C152.01 284.45 152.1 284.41 152.15 284.41C152.43 284.41 152.72 284.42 153 284.45L170.46 284.42C170.44 284.35 170.33 283.17 169.94 268.85C169.38 248.19 168.34 224.97 168.34 224.97C188.69 225.62 193.44 218.49 200.18 209.91C206.92 201.33 209.6 182.79 210.07 173.86C210.54 164.93 209.41 156.69 209.41 156.69V156.69Z" fill="#889CFF"/>
<path d="M146.33 191.12L146.13 193.14L149.08 197.58L149 214.46C148.53 213.98 151.49 252.37 151.67 257.8L137 215.12L135.79 217.11L126.65 197.59L131.07 192.92L131.89 182.07C131.89 182.07 127.67 183.51 126.19 180.51C124.71 177.51 125.96 173.99 128.5 173.46C131.04 172.93 133.59 174.94 133.59 174.94C133.59 174.94 138.88 168.58 139.24 164.55C139.24 164.55 144.27 170.71 151.61 168.21C151.61 168.21 151.94 180.4 151.75 182.89C151.56 185.38 151.93 190.5 146.33 191.13V191.12Z" fill="white"/>
<path d="M189.53 161C189.53 161 189.75 153.15 189.68 151.55C189.61 149.95 188.64 148.42 186.87 147.87C185.1 147.32 180.58 145 180.76 143.25C180.93 141.5 182.16 140.11 184.04 140.38C185.92 140.65 188.78 141.52 191.26 142.82C193.74 144.12 195.67 144.73 195.67 144.73C195.67 144.73 201.26 138.06 204.49 135.17C207.72 132.28 210.34 132.22 211.14 133.44C211.14 133.44 213.95 132.53 214.91 134.27C214.91 134.27 217.1 133.44 218.59 134.44C220.08 135.44 219.53 138.2 216.53 142.45C213.53 146.69 208.54 149.3 207.91 150.23C207.28 151.16 205.54 155.72 206.48 157.9C206.48 157.9 205.92 159.26 199.95 160.17C193.98 161.08 189.53 161 189.53 161Z" fill="white"/>
<path d="M206.71 154.95C206.71 154.95 208.94 155.42 209.26 156.29C209.57 157.16 206.71 158.15 206.71 158.15V154.95V154.95Z" fill="#2F3197"/>
<path d="M189.73 157.88L189.49 161.18C189.49 161.18 185.91 161.16 186.33 159.9C186.75 158.63 189.73 157.88 189.73 157.88Z" fill="#2F3197"/>
<path d="M142.69 205.76L147.12 211.75L146.54 216.89L149.44 223.15L151.68 257.79L141.2 226.89L141.96 217.44L138.53 212.62L142.69 205.76Z" fill="#2F3197"/>
<path d="M126.72 174.28C126.72 174.28 123.2 169.7 124.74 165.27C126.28 160.84 129 158.36 135.92 159.78C135.92 159.78 139.49 155.72 143.96 156.22C148.43 156.72 153.56 158.58 154.58 163.56C155.6 168.54 151.86 172.57 151.86 172.57L151.61 168.2C151.61 168.2 142.71 170.06 139.55 164.32C139.24 164.54 135.96 173.91 133.59 174.92C133.59 174.92 130.95 171.44 126.71 174.28H126.72Z" fill="#3D4CA1"/>
<path d="M141.6 207.57L145.1 212.09L144.35 217.28L150.3 235.67L149.44 223.15L146.54 216.89L146.86 211.43L142.69 205.76L141.6 207.57Z" fill="white"/>
<path d="M142.07 156.69C141.68 156.63 141.31 156.58 140.96 156.51C141.89 156.23 142.9 156.09 143.96 156.21C148.43 156.71 153.56 158.57 154.58 163.55C155.6 168.53 151.86 172.56 151.86 172.56L151.61 168.19C151.61 168.19 151.11 168.29 150.32 168.38C150.29 168.19 154 158.41 142.07 156.69V156.69Z" fill="#2F3197"/>
<path d="M139.26 164.11C139.26 164.11 134.77 172.79 131.26 173.19L133.74 175.1C133.74 175.1 137.61 168.72 139.26 164.11Z" fill="#2F3197"/>
<path d="M49.72 230.37L47.79 228.42C45.76 226.38 43.67 224.27 41.67 222.14C41.22 221.66 41.18 220.56 41.44 219.96C42.15 218.38 42.91 216.78 43.64 215.24C44.32 213.83 44.99 212.42 45.63 211C45.85 210.5 45.91 209.82 45.75 209.38C44.63 206.17 43.56 203.31 42.47 200.65C42.24 200.09 41.67 199.5 41.14 199.29C37.97 198.01 34.79 196.88 32.37 196.04C31.3 195.67 30.88 195.05 30.9 193.91C30.97 190.36 30.97 187.12 30.9 184.02C30.88 182.83 31.33 182.2 32.51 181.8C35.07 180.92 38.1 179.84 41.11 178.61C41.64 178.39 42.25 177.75 42.52 177.12C43.56 174.72 44.57 172.14 45.82 168.77C46 168.27 46.01 167.59 45.83 167.19C45.15 165.68 44.44 164.19 43.73 162.69C42.97 161.1 42.22 159.51 41.5 157.91C41.22 157.29 41.37 156.22 41.8 155.76C43.13 154.34 44.53 152.93 45.88 151.56C46.91 150.52 47.95 149.47 48.96 148.41C49.69 147.65 50.38 147.54 51.35 148.02C54.72 149.69 57.56 151.04 60.27 152.25C60.77 152.48 61.53 152.51 62.02 152.33C64.9 151.29 67.77 150.17 70.55 149C71.17 148.74 71.77 148.19 71.96 147.72C72.98 145.2 73.97 142.49 75.18 138.95C75.53 137.94 76 137.31 77.36 137.31C80.51 137.39 83.75 137.39 87.25 137.31C88.41 137.31 89.06 137.76 89.47 138.93C89.95 140.33 90.46 141.72 90.97 143.1C91.52 144.59 92.06 146.08 92.57 147.58C92.85 148.4 93.26 148.79 94.18 149.11C97 150.09 99.71 151.17 102.26 152.34C103.12 152.73 103.68 152.73 104.48 152.32C105.98 151.56 107.5 150.84 109.01 150.11C110.42 149.44 111.82 148.77 113.22 148.07C114.25 147.55 114.96 147.68 115.76 148.51C118.29 151.15 120.58 153.43 122.76 155.5C123.74 156.43 123.63 157.22 123.14 158.2C121.87 160.78 120.38 163.84 119.01 166.97C118.8 167.45 118.83 168.26 119.07 168.81C120.27 171.61 121.57 174.4 122.93 177.11C123.26 177.77 123.86 178.37 124.39 178.58C124.76 178.72 125.13 178.86 125.24 179.72C124.86 179.58 124.49 179.44 124.12 179.3C123.31 178.99 122.59 178.15 122.24 177.46C120.88 174.74 119.57 171.93 118.37 169.11C118.05 168.36 118.02 167.32 118.31 166.65C119.69 163.5 121.18 160.43 122.46 157.84C122.86 157.04 122.88 156.65 122.24 156.04C120.05 153.96 117.76 151.67 115.22 149.02C114.66 148.43 114.31 148.37 113.57 148.73C112.17 149.43 110.76 150.11 109.35 150.78C107.84 151.5 106.33 152.23 104.83 152.98C103.81 153.49 103.01 153.5 101.94 153.01C99.42 151.86 96.73 150.78 93.93 149.81C92.78 149.41 92.2 148.85 91.84 147.8C91.33 146.3 90.79 144.82 90.24 143.34C89.73 141.95 89.22 140.56 88.73 139.15C88.43 138.28 88.07 138 87.26 138.05C83.75 138.13 80.49 138.13 77.24 138.05C76.43 138.05 76.17 138.36 75.9 139.17C74.68 142.73 73.69 145.44 72.67 147.98C72.36 148.75 71.51 149.4 70.85 149.68C68.06 150.86 65.17 151.99 62.28 153.03C61.6 153.28 60.64 153.24 59.96 152.93C57.24 151.71 54.4 150.36 51.01 148.69C50.33 148.35 50.02 148.4 49.51 148.93C48.49 149.99 47.46 151.04 46.42 152.08C45.08 153.44 43.68 154.85 42.36 156.26C42.14 156.49 42.05 157.24 42.2 157.57C42.91 159.17 43.67 160.75 44.42 162.34C45.13 163.84 45.85 165.34 46.53 166.85C46.79 167.43 46.79 168.32 46.54 169.01C45.29 172.4 44.27 174.99 43.23 177.4C42.87 178.22 42.12 179 41.4 179.3C38.37 180.54 35.34 181.62 32.76 182.51C31.89 182.81 31.65 183.14 31.67 183.99C31.74 187.11 31.74 190.35 31.67 193.92C31.66 194.73 31.87 195.04 32.63 195.31C35.06 196.15 38.25 197.28 41.44 198.57C42.15 198.85 42.88 199.61 43.19 200.35C44.29 203.02 45.37 205.89 46.49 209.12C46.71 209.75 46.65 210.63 46.34 211.31C45.69 212.74 45.02 214.15 44.34 215.57C43.61 217.11 42.85 218.69 42.15 220.27C41.98 220.66 42.05 221.41 42.24 221.61C44.23 223.73 46.32 225.84 48.35 227.87L50.09 229.63L52.39 228.54C54.36 227.6 56.3 226.69 58.56 226.5C56.62 227.38 54.69 228.3 52.72 229.24C52.72 229.24 50.18 230.45 50.01 230.48C49.91 230.48 49.81 230.44 49.74 230.37H49.72ZM95.72 202.34C99.32 198.81 101.23 194.18 101.23 188.93C101.23 183.84 99.27 179.1 95.73 175.56C92.16 172 87.35 170.03 82.13 170.03C71.78 170.05 63.37 178.55 63.38 188.98C63.38 194.23 65.29 198.85 68.36 202.89C64.6 199.25 62.61 194.44 62.61 188.98C62.61 178.13 71.36 169.29 82.17 169.27C87.54 169.27 92.55 171.31 96.27 175.02C99.96 178.7 102 183.64 102 188.93C102 194.39 100.02 199.22 95.99 203C95.89 203 95.79 202.96 95.72 202.34V202.34Z" fill="#2F3197"/>
<path d="M189.51 161.57C190.01 160.15 190.96 150.69 189.17 149.08C187.61 147.68 186.11 147 184.79 146.4C184.3 146.18 183.83 145.96 183.37 145.72C181.74 144.85 180.93 143.72 181.16 142.62C181.37 141.64 182.37 140.89 183.62 140.78C186.27 140.55 190.56 142.86 193.7 144.54C196.69 146.13 203.74 143.61 204.03 143.5C201.82 143.48 196.34 145.08 194.36 144.02C190.66 142.04 186.44 139.78 183.56 140.02C181.98 140.15 180.68 141.15 180.41 142.47C180.27 143.16 180.23 144.92 183.01 146.4C183.48 146.65 183.97 146.87 184.47 147.1C185.81 147.71 187.19 148.33 188.66 149.66C189.79 150.67 189.55 157.25 189.14 161.15C189.5 161.57 189.51 161.58 189.52 161.58L189.51 161.57Z" fill="#2F3197"/>
<path d="M206.5 158.53C206.87 158.03 206.08 151.52 208.85 149.96C211.59 148.41 220.05 141.23 219.66 135.88C219.59 134.96 219.11 134.22 218.33 133.83C217.33 133.34 216 133.5 214.86 134.25C213.05 135.44 207.53 141.18 206.73 142.01C205.64 142.2 198.49 143.64 196.17 148.32C199.15 144.06 206.9 142.76 206.98 142.75C207.26 142.57 213.44 136.1 215.28 134.89C216.2 134.29 217.24 134.15 217.99 134.52C218.53 134.79 218.85 135.29 218.9 135.94C219.24 140.6 211.65 147.5 208.48 149.3C205.27 151.12 206.09 157.92 206.13 158.21C206.16 158.4 206.32 158.55 206.51 158.55L206.5 158.53Z" fill="#2F3197"/>
<path d="M200.34 144.57C204.45 140.21 210.68 133.81 212.15 133.56C213.97 133.22 214.69 134.67 214.72 134.73C215.08 133.7 213.95 132.46 212.01 132.8C209.81 133.19 201.04 142.83 200.05 143.93C200.15 144.54 200.24 144.57 200.33 144.57H200.34Z" fill="#2F3197"/>
<path d="M195.66 145.12C195.99 144.94 199.67 140.63 200.53 139.78C200.96 139.36 201.47 138.82 202.01 138.23C203.81 136.3 206.05 133.91 207.88 133.27C210.06 132.51 210.79 133.63 210.8 133.65C211.41 133.18 210.38 131.59 207.63 132.55C205.62 133.25 203.31 135.72 201.46 137.7C200.92 138.28 200.42 138.81 200 139.23C199.11 140.1 195.53 144.3 195.37 144.48C195.49 145.08 195.58 145.11 195.66 145.11V145.12Z" fill="#2F3197"/>
<path d="M160.31 198.4C169.42 198.4 178.33 196.37 182.21 190.57C184.16 187.65 185.56 184.13 186.46 179.82C187.74 173.76 187.83 166.76 186.69 160.1C187.05 166.79 186.97 173.69 185.71 179.66C184.82 183.87 183.47 187.3 181.57 190.14C176.54 197.66 161.47 198.81 148.77 196.62C152.3 198.01 156.32 198.4 160.31 198.4V198.4Z" fill="#2F3197"/>
<path d="M172.12 225.55C186.06 225.55 193.21 219.19 197.47 214.18C213 195.94 210.82 165.22 209.78 156.24C210.05 165.23 212.21 195.67 196.88 213.68C192.31 219.05 184.34 226.03 167.83 224.59C169.28 225.49 170.73 225.55 172.11 225.55H172.12Z" fill="#2F3197"/>
<path d="M190.52 161.6C193.09 161.6 196.19 161.22 198.3 160.87C202.42 160.18 210.13 158.31 209.78 156.22C209.65 155.48 208.28 154.7 206.43 154.7C208.15 155.47 208.97 156.18 209.02 156.36C209.13 156.99 205.39 158.9 198.17 160.11C190.95 161.33 186.8 160.75 186.69 160.11C186.67 160.03 186.65 159.31 189.77 158.23C186.94 158.4 185.77 159.29 185.93 160.24C186.1 161.26 188.07 161.6 190.52 161.6V161.6Z" fill="#2F3197"/>
<path d="M140.22 173.47C140.53 173.42 140.73 173.56 140.81 174.66C140.9 175.89 140.58 176.11 140.3 176.1C140.02 176.09 139.75 175.7 139.77 174.82C139.79 173.94 139.81 173.53 140.22 173.47Z" fill="#1A1A1A"/>
<path d="M149.19 173.64C149.5 173.6 149.7 173.74 149.75 174.85C149.81 176.08 149.48 176.29 149.2 176.27C148.92 176.25 148.66 175.86 148.7 174.98C148.74 174.1 148.78 173.69 149.18 173.64H149.19Z" fill="#2F3197"/>
<path d="M131.26 193.5C131.64 193.14 132.28 182.08 132.28 182.08C131.51 182.03 130.87 193.09 130.87 193.09C131.24 193.5 131.25 193.5 131.25 193.5H131.26Z" fill="#2F3197"/>
<path d="M145.3 191.53C147.3 191.53 149.37 191.26 150.67 189.3C152.04 187.24 152.07 184.55 152.09 182.17C152.09 181.65 152.1 181.13 152.12 180.64C152.18 179.02 152 168.62 151.99 168.18C151.22 168.3 151.41 179.01 151.35 180.61C151.33 181.11 151.32 181.63 151.32 182.16C151.29 184.54 151.27 187 150.02 188.87C148.7 190.85 146.38 190.79 144.15 190.74C143.86 190.74 143.58 190.72 143.3 190.72C141.4 190.7 139.85 190.53 138.44 190.2C139.73 191.29 141.33 191.46 143.29 191.48C143.57 191.48 143.85 191.48 144.13 191.5C144.51 191.5 144.9 191.52 145.29 191.52L145.3 191.53Z" fill="#2F3197"/>
<path d="M129.99 182.86C131.05 182.86 132.12 182.52 133.02 181.84C130.97 182.42 128.81 182.37 127.27 181.1C125.47 179.6 125.22 176.91 126.73 175.11C127.46 174.24 128.48 173.7 129.61 173.6C130.76 173.49 131.85 173.84 132.72 174.57C133.29 175.05 133.73 175.66 133.98 176.35C134.4 175.27 133.89 174.54 133.21 173.98C132.18 173.12 130.89 172.71 129.54 172.84C128.2 172.96 127 173.6 126.14 174.63C124.37 176.76 124.66 179.93 126.79 181.7C127.72 182.48 128.86 182.87 130 182.87L129.99 182.86Z" fill="#2F3197"/>
<path d="M151.52 172.24C151.86 171.68 150.93 169.76 148.22 170.44C150.5 170.66 151.15 171.96 151.18 172.02C151.24 172.16 151.38 172.24 151.53 172.24H151.52Z" fill="#2F3197"/>
<path d="M138.28 172.36C140.38 169.95 142.16 171.03 142.23 171.08C142.62 170.42 140.22 168.91 137.98 171.73C138.11 172.33 138.2 172.35 138.28 172.35V172.36Z" fill="#2F3197"/>
<path d="M146.13 193.53C146.51 193.15 146.53 191.14 146.53 191.14C145.76 191.14 145.75 193.14 145.75 193.14C146.13 193.53 146.13 193.53 146.13 193.53Z" fill="#2F3197"/>
<path d="M126.72 174.66C125 171.65 124.32 168.13 125.19 165.09C125.89 162.63 127.46 160.89 129.63 160.18C130.77 159.81 132.08 159.69 133.52 159.84C134.31 159.92 135.85 159.99 135.91 159.99C135.93 159.22 134.37 159.16 133.6 159.08C132.04 158.93 130.63 159.05 129.39 159.45C126.98 160.24 125.22 162.17 124.45 164.88C123.52 168.15 124.25 171.96 126.27 174.34C126.51 174.61 126.62 174.65 126.72 174.65V174.66Z" fill="#2F3197"/>
<path d="M128.51 180.62C128.68 180.58 132.29 178.82 132.29 178.82C132.4 178.21 129.15 174.84 129.15 174.84C128.6 175.37 131.48 178.36 131.48 178.36L128.34 179.89C128.23 180.54 128.37 180.62 128.51 180.62V180.62Z" fill="#2F3197"/>
<path d="M137.79 162.32C138.09 161.7 136.22 159.34 136.22 159.34C135.62 159.82 137.48 162.17 137.48 162.17C137.56 162.27 137.67 162.32 137.78 162.32H137.79Z" fill="#2F3197"/>
<path d="M133.6 175.3C136.9 172.05 138.84 166.9 139.47 165.08C140.79 166.5 144.92 170.1 151.71 168.57C143.74 169.59 139.8 164.32 139.63 164.09C138.93 164.27 136.84 171.01 133.33 174.65C133.41 175.27 133.51 175.3 133.61 175.3H133.6Z" fill="#2F3197"/>
<path d="M170.55 284.47C170.48 254.14 169.32 232.22 167.19 216.05C168.67 232.32 169.73 254.32 170.02 284.54C170.19 284.49 170.37 284.47 170.55 284.47Z" fill="#2F3197"/>
<path d="M135.25 217.6C135.25 217.6 126.32 197.74 126.39 197.32C126.39 197.32 130.81 192.65 131.37 192.65L142.58 204.88C142.58 204.88 145.77 193.04 146.46 192.93C146.46 192.93 149.52 197.52 149.59 197.74C149.59 197.74 149.47 214.56 148.77 214.77L142.8 206.35C142.8 206.35 135.94 217.64 135.61 217.82C135.61 217.82 135.59 217.82 135.26 217.59L135.25 217.6ZM131.08 193.47L127.12 197.65L135.65 216.61L142.29 205.69L131.08 193.46V193.47ZM146.29 194.06L143.19 205.58L148.71 213.36L148.82 197.86L146.3 194.07L146.29 194.06Z" fill="#2F3197"/>
<path d="M151.68 259.1C151.99 259.02 152.11 258.81 152.05 258.61C149.67 250.64 137.5 215.34 137.38 214.98C136.78 215.59 148.94 250.87 151.32 258.83C151.37 259 151.52 259.1 151.69 259.1H151.68Z" fill="#2F3197"/>
<path d="M152.86 284.44C152.66 270.51 152.08 258.86 152.07 258.7C151.93 249 148.95 214.12 148.92 213.77C148.19 214.19 151.16 249.04 151.3 258.73C151.3 258.9 151.9 270.6 152.23 284.42C152.44 284.42 152.65 284.42 152.86 284.44V284.44Z" fill="#2F3197"/>
<path d="M141.99 217.87L146.4 217.49C146.75 217.14 147.24 211.47 147.24 211.47C146.48 211.4 146 216.75 146 216.75L142.17 217.09L138.84 212.4C138.21 212.84 141.67 217.71 141.67 217.71C141.74 217.81 141.86 217.87 141.98 217.87H141.99Z" fill="#2F3197"/>
<path d="M141.2 227.27C141.58 226.92 142.36 217.51 142.36 217.51C141.6 217.45 140.82 226.85 140.82 226.85C141.18 227.26 141.19 227.26 141.2 227.26V227.27Z" fill="#2F3197"/>
<path d="M149.31 223.51C149.65 222.96 146.71 216.93 146.71 216.93C146.02 217.27 148.97 223.29 148.97 223.29C149.04 223.43 149.17 223.51 149.32 223.51H149.31Z" fill="#2F3197"/>
<path d="M143.32 185.66C143.74 185.66 144.2 185.58 144.68 185.41C143.58 184.98 142.88 184.96 142.33 184.63C141.41 184.08 141.2 182.83 141.19 182.82C140.44 183.01 140.7 184.56 141.93 185.29C142.34 185.54 142.8 185.66 143.32 185.66V185.66Z" fill="#2F3197"/>
<path d="M145.58 182.12C146.49 182.12 147.98 182 148.65 181.27C148.95 180.95 149.06 180.53 148.98 180.07C148.64 178.15 146.89 172.35 146.81 172.11C146.09 172.39 147.89 178.33 148.22 180.21C147.5 181.4 145.55 181.39 144.9 181.34C144.92 182.11 145.2 182.13 145.57 182.13L145.58 182.12Z" fill="#2F3197"/>
<path d="M151.87 172.95C152.24 172.71 158.12 164.55 152.58 159.45C147.38 154.67 140.71 154.63 135.98 159.33C140.94 155.48 147.19 155.54 152.07 160.02C157.11 164.65 151.63 172.26 151.57 172.34C151.72 172.93 151.8 172.95 151.88 172.95H151.87Z" fill="#2F3197"/>
<path d="M91.79 221.75C88.38 236.33 87.37 265.82 87.08 284.52C87.25 284.52 87.42 284.52 87.6 284.55C87.65 284.55 87.69 284.57 87.74 284.58C88.14 265.8 89.15 236.43 92.53 221.92C97.64 200.04 126.39 197.97 126.69 197.95C126.35 197.2 97.03 199.31 91.79 221.74V221.75Z" fill="#2F3197"/>
<path d="M113.6 284.47C113.78 284.47 113.96 284.47 114.14 284.47C114.74 255 116.82 225.53 116.85 225.17C116.18 225.48 113.98 255.11 113.6 284.46V284.47Z" fill="#2F3197"/>
<path d="M92.01 147.56C90.43 136.24 91.51 124.35 94.75 112.99L96.37 108.12C105.56 84.87 126.11 68.64 149.01 59.56" stroke="#2F3197" stroke-width="0.54" stroke-linecap="round" stroke-linejoin="round"/>
<path d="M245.37 222.76L229.06 216.34C228.37 216.07 227.66 216.68 227.82 217.41L231.78 234.48C231.94 235.16 232.76 235.42 233.28 234.97L236.82 231.91C237.21 231.58 237.79 231.62 238.12 232.01L242.85 237.49C243.18 237.88 243.76 237.92 244.15 237.59L246.95 235.17C247.34 234.84 247.38 234.26 247.05 233.87L242.32 228.39C241.99 228 242.03 227.42 242.42 227.09L245.63 224.32C246.15 223.87 246.01 223.02 245.37 222.76V222.76Z" fill="#00BA87"/>
<path d="M342.81 284.41H350.95Z" fill="#889CFF"/>
<path d="M342.81 284.41H350.95" stroke="#2F3197" stroke-width="0.54" stroke-linecap="round" stroke-linejoin="round"/>
<path d="M358.25 284.41H410.02Z" fill="#889CFF"/>
<path d="M358.25 284.41H410.02" stroke="#2F3197" stroke-width="0.54" stroke-linecap="round" stroke-linejoin="round"/>
<path d="M195.34 62.34C199.76 49.85 207.18 37.72 216.56 28.38C233.81 11.2 262.88 7.76998 284.04 19.5C292.14 23.99 298.79 30.96 302.75 39.35C306.38 47.03 309.78 59.45 302.91 66.37C299.86 69.44 294.62 70.88 290.42 69.9C284.21 68.45 283.82 61.74 285.08 56.56C290.19 35.59 308.48 26.37 328.37 23.83C342.22 22.06 356.54 24.39 369.1 30.5C376.02 33.87 381.84 38.18 386.74 43" stroke="#2F3197" stroke-width="0.54" stroke-linecap="round" stroke-linejoin="round"/>
<path d="M393.55 50.71C410.24 72.48 412.45 99.21 412.45 99.21" stroke="#2F3197" stroke-width="0.54" stroke-linecap="round" stroke-linejoin="round"/>
<path d="M446.51 108.95H405.53C403.879 108.95 402.54 110.289 402.54 111.94V152.92C402.54 154.571 403.879 155.91 405.53 155.91H446.51C448.161 155.91 449.5 154.571 449.5 152.92V111.94C449.5 110.289 448.161 108.95 446.51 108.95Z" fill="#3D4CA1"/>
<path d="M413.72 144.82H407.49C406.79 144.82 406.22 144.25 406.22 143.55V117.8C406.22 117.1 406.79 116.53 407.49 116.53H413.72C414.42 116.53 414.99 117.1 414.99 117.8V143.55C414.99 144.25 414.42 144.82 413.72 144.82Z" fill="#00C18E"/>
<path d="M426.87 144.82H420.64C419.94 144.82 419.37 144.25 419.37 143.55V128.1C419.37 127.4 419.94 126.83 420.64 126.83H426.87C427.57 126.83 428.14 127.4 428.14 128.1V143.55C428.14 144.25 427.57 144.82 426.87 144.82Z" fill="#7380D1"/>
<path d="M440.02 144.82H433.79C433.09 144.82 432.52 144.25 432.52 143.55V134.26C432.52 133.56 433.09 132.99 433.79 132.99H440.02C440.72 132.99 441.29 133.56 441.29 134.26V143.55C441.29 144.25 440.72 144.82 440.02 144.82Z" fill="white"/>
<path d="M441.29 104.35H400.64C398.989 104.35 397.65 105.689 397.65 107.34V147.56C397.65 149.211 398.989 150.55 400.64 150.55H441.29C442.941 150.55 444.28 149.211 444.28 147.56V107.34C444.28 105.689 442.941 104.35 441.29 104.35Z" stroke="#889CFF" stroke-width="0.54" stroke-miterlimit="10"/>
<path d="M174.06 53.05V19.71C174.06 19.71 159.18 19.32 149.89 30.09C140.6 40.86 140.73 53.04 140.73 53.04H174.07L174.06 53.05Z" fill="#00C18E"/>
<path d="M182.99 28.67V62H149.65C149.65 80.41 164.58 95.34 182.99 95.34C201.4 95.34 216.33 80.41 216.33 62C216.33 43.59 201.4 28.66 182.99 28.66V28.67Z" fill="#889CFF"/>
<path d="M179.88 25.2599C179.92 25.4699 180.08 59.1699 180.08 59.1699C180.08 59.3799 179.91 59.56 179.69 59.56H146.35" stroke="#2F3197" stroke-width="0.54" stroke-miterlimit="10"/>
<path d="M179.5 92.46C161.11 92.24 146.27 77.26 146.27 58.82C146.27 40.38 161.33 25.18 179.91 25.18C198.49 25.18 213.55 40.24 213.55 58.82C213.55 65.18 211.78 71.13 208.72 76.2" stroke="#2F3197" stroke-width="0.54" stroke-linecap="round" stroke-linejoin="round"/>
<path d="M412.13 262.78C411.59 261.54 410.85 260.55 411.06 259.23C411.35 257.41 413.48 256.18 414.49 254.65C415.59 252.97 415.99 251.08 415.15 249.24C414.52 247.86 413.43 246.69 412.29 245.59C411.53 244.85 410.71 244.09 410.43 243.12C410.26 242.53 410.31 241.91 410.38 241.3C410.74 237.94 414.4 230.25 409.3 228.43C406.55 227.45 404.75 232.1 404.4 233.68C403.69 236.84 404.75 240.27 402.58 243.11C401.46 244.58 399.69 245.54 398.23 246.74C396.19 248.42 394.73 250.77 394.57 253.26C394.43 255.5 396.27 257.27 396.17 259.44C396.09 261.22 394.55 262.39 393.64 263.85C390.96 268.16 394.5 273.32 398.93 275.37C399.99 275.86 400.93 276.2 402.11 276.34L412.12 262.78H412.13Z" fill="#7380D1"/>
<path d="M421.17 253.79C419.82 253.2 418.19 253.48 417.04 255.01C416.18 256.15 415.78 257.56 415.3 258.9C414.78 260.33 414.1 261.77 412.72 262.52C411.34 263.27 409.66 263.26 408.28 264.02C406.48 265.01 404.87 266.39 403.72 268.1C401.94 270.74 401.32 274.21 402.38 277.21C403.66 280.81 407.65 283.35 411.46 282.81C414.47 282.39 417.02 280.09 418.25 277.31C419.48 274.53 419.54 271.34 418.96 268.35C418.42 265.56 420.38 264.13 421.93 262.1C423.1 260.58 423.83 258.61 423.44 256.74C423.14 255.32 422.25 254.27 421.17 253.8V253.79Z" fill="#00C18E"/>
<path d="M370.07 254.24C368.87 255.09 368.27 256.64 368.98 258.4C369.51 259.72 370.51 260.79 371.41 261.9C372.37 263.09 373.25 264.41 373.18 265.97C373.11 267.54 372.24 268.97 372.17 270.55C372.09 272.61 372.44 274.69 373.31 276.56C374.65 279.45 377.3 281.77 380.42 282.41C384.16 283.18 388.39 281.07 389.91 277.52C391.1 274.72 390.45 271.36 388.7 268.86C386.95 266.37 384.25 264.68 381.4 263.63C378.73 262.65 378.52 260.23 377.59 257.86C376.89 256.08 375.58 254.44 373.78 253.8C372.41 253.32 371.06 253.54 370.09 254.22L370.07 254.24Z" fill="#00C18E"/>
<path d="M399.83 272.88C398.57 272.74 397.6 272.38 396.52 271.89C393.62 270.55 391.23 267.97 390.43 265.31C389.86 263.42 390.1 261.57 391.1 259.96C391.39 259.5 391.73 259.07 392.07 258.65C392.82 257.72 393.53 256.83 393.58 255.7C393.63 254.7 393.23 253.79 392.81 252.82C392.36 251.79 391.9 250.73 391.98 249.52C392.13 247.09 393.51 244.64 395.74 242.8C396.01 242.58 396.29 242.36 396.57 242.16C396.7 242.06 396.88 242.09 396.98 242.22C397.07 242.35 397.05 242.53 396.92 242.63C396.65 242.83 396.37 243.04 396.11 243.26C394 245 392.7 247.3 392.56 249.57C392.49 250.64 392.91 251.59 393.34 252.6C393.77 253.59 394.21 254.61 394.16 255.74C394.1 257.07 393.3 258.07 392.52 259.03C392.19 259.44 391.86 259.85 391.59 260.29C390.68 261.76 390.47 263.44 390.98 265.17C391.73 267.68 394 270.12 396.76 271.39C397.79 271.86 398.71 272.2 399.85 272.33C400.01 272.35 400.13 272.49 400.11 272.65C400.09 272.8 399.97 272.91 399.82 272.91L399.83 272.88Z" fill="#2F3197"/>
<path d="M410.29 261.13C409.9 260.68 409.78 260.42 409.65 260.17C409.19 259.24 408.76 258.36 408.94 257.25C409.14 256.01 410.1 255.05 411.03 254.12C411.56 253.59 412.06 253.09 412.42 252.55C413.22 251.33 413.99 249.44 413.05 247.42C412.43 246.06 411.34 244.91 410.26 243.86C409.4 243.03 408.61 242.27 408.33 241.26C408.15 240.62 408.2 239.98 408.27 239.33C408.36 238.53 408.63 237.49 408.91 236.39C409.87 232.69 411.05 228.08 407.38 226.77C406.83 226.57 406.31 226.62 405.79 226.91C404.21 227.78 403.14 230.59 402.86 231.81C402.62 232.9 402.59 234.05 402.56 235.16C402.52 236.58 402.48 238.05 402.01 239.43C401.95 239.58 401.79 239.66 401.64 239.61C401.49 239.56 401.41 239.39 401.46 239.24C401.91 237.94 401.94 236.58 401.98 235.14C402.01 234 402.04 232.82 402.3 231.67C402.53 230.63 403.63 227.43 405.51 226.38C406.18 226.01 406.88 225.95 407.58 226.2C411.75 227.69 410.44 232.79 409.48 236.52C409.2 237.6 408.94 238.62 408.86 239.38C408.8 239.98 408.75 240.55 408.9 241.09C409.14 241.94 409.87 242.65 410.58 243.33C411.8 244.51 412.93 245.72 413.6 247.16C414.43 248.96 414.19 250.93 412.92 252.86C412.53 253.45 411.99 253.99 411.46 254.52C410.6 255.38 409.71 256.27 409.54 257.32C409.39 258.25 409.77 259.01 410.2 259.89C410.33 260.15 410.46 260.42 410.58 260.7C410.65 260.85 410.58 261.02 410.43 261.08C410.39 261.1 410.35 261.1 410.31 261.1L410.29 261.13Z" fill="#2F3197"/>
<path d="M408.58 281.22C404.96 281.22 401.46 278.75 400.26 275.35C399.21 272.39 399.74 268.8 401.64 265.98C402.77 264.31 404.38 262.87 406.31 261.81C407.04 261.41 407.84 261.21 408.62 261.02C409.38 260.83 410.1 260.66 410.75 260.3C412.04 259.6 412.69 258.22 413.19 256.84C413.27 256.61 413.36 256.38 413.44 256.15C413.83 255.02 414.24 253.86 414.98 252.87C415.76 251.83 416.84 251.25 418 251.25C418.5 251.25 418.99 251.36 419.46 251.56C420.69 252.1 421.6 253.28 421.9 254.71C422.27 256.49 421.7 258.53 420.34 260.31C420.02 260.72 419.69 261.11 419.37 261.48C418.11 262.95 417.01 264.22 417.42 266.32C418.08 269.73 417.83 272.89 416.69 275.45C415.33 278.53 412.64 280.71 409.68 281.12C409.33 281.17 408.97 281.19 408.6 281.19L408.58 281.22ZM417.98 251.85C417.01 251.85 416.1 252.34 415.43 253.24C414.75 254.15 414.35 255.27 413.97 256.36C413.89 256.59 413.81 256.83 413.72 257.06C413.18 258.55 412.47 260.04 411.01 260.84C410.29 261.23 409.5 261.42 408.74 261.61C407.97 261.8 407.24 261.98 406.57 262.34C404.73 263.35 403.18 264.73 402.11 266.33C400.32 269 399.81 272.38 400.8 275.18C401.92 278.35 405.19 280.66 408.57 280.66C408.9 280.66 409.24 280.64 409.56 280.59C412.28 280.21 414.86 278.12 416.12 275.26C417.21 272.81 417.45 269.77 416.81 266.48C416.35 264.11 417.58 262.67 418.89 261.15C419.21 260.78 419.53 260.4 419.84 260C421.1 258.36 421.63 256.49 421.3 254.87C421.04 253.62 420.26 252.6 419.2 252.13C418.8 251.96 418.39 251.87 417.97 251.87L417.98 251.85Z" fill="#2F3197"/>
<path d="M382 281.28C381.45 281.28 380.89 281.23 380.35 281.11C377.27 280.48 374.47 278.17 373.04 275.09C372.19 273.26 371.79 271.14 371.88 268.94C371.91 268.1 372.16 267.32 372.4 266.55C372.63 265.8 372.85 265.1 372.89 264.35C372.96 262.88 372.11 261.62 371.18 260.47C371.03 260.28 370.88 260.1 370.72 259.91C369.96 258.99 369.17 258.03 368.71 256.89C368.01 255.15 368.48 253.38 369.9 252.38C371 251.61 372.48 251.43 373.86 251.92C375.58 252.52 377.03 254.07 377.85 256.15C378.04 256.63 378.2 257.11 378.35 257.59C378.81 258.98 379.24 260.29 380.33 261.13C380.46 261.23 380.48 261.41 380.38 261.54C380.28 261.67 380.1 261.69 379.97 261.59C378.74 260.64 378.28 259.25 377.8 257.77C377.65 257.31 377.49 256.84 377.31 256.36C376.55 254.43 375.23 253.02 373.67 252.47C372.47 252.05 371.19 252.19 370.24 252.86C369.02 253.71 368.65 255.18 369.25 256.68C369.68 257.74 370.44 258.66 371.17 259.54C371.33 259.73 371.48 259.92 371.63 260.1C372.63 261.34 373.54 262.71 373.46 264.37C373.42 265.19 373.18 265.96 372.94 266.71C372.7 267.47 372.48 268.19 372.45 268.94C372.37 271.04 372.75 273.08 373.56 274.82C374.91 277.73 377.56 279.92 380.46 280.51C384.13 281.27 388.17 279.19 389.62 275.8C390.7 273.27 390.24 269.99 388.44 267.43C387.83 266.56 387.07 265.75 386.18 265.03C386.05 264.93 386.04 264.75 386.14 264.62C386.24 264.49 386.43 264.48 386.55 264.58C387.48 265.34 388.28 266.19 388.91 267.1C390.84 269.86 391.32 273.29 390.15 276.04C388.81 279.18 385.43 281.26 381.99 281.26L382 281.28Z" fill="#2F3197"/>
<path d="M388.62 284.47C384.15 276.73 371.77 255.02 371.65 254.8C371.57 254.66 371.62 254.48 371.76 254.4C371.9 254.32 372.08 254.37 372.16 254.51C372.29 254.73 384.67 276.44 388.88 284.03C388.96 284.17 388.91 284.35 388.77 284.43C388.73 284.45 388.68 284.47 388.63 284.47H388.62Z" fill="#2F3197"/>
<path d="M397.2 284.23C396.99 284.2 396.88 284.04 396.91 283.89L406.61 231.75C406.64 231.59 406.78 231.49 406.95 231.52C407.11 231.55 407.21 231.7 407.18 231.86L397.48 284C397.45 284.14 397.33 284.24 397.19 284.24L397.2 284.23Z" fill="#2F3197"/>
<path d="M403.24 284.36C402.96 284.25 402.91 284.08 402.98 283.93L418 255.45C418.07 255.31 418.25 255.25 418.39 255.33C418.53 255.41 418.59 255.58 418.51 255.72L403.49 284.2C403.44 284.3 403.34 284.36 403.23 284.36H403.24Z" fill="#2F3197"/>
<path d="M80.18 116.78C80.14 120.96 82.21 123.03 86.39 122.99C82.21 123.03 80.1 125.14 80.05 129.33C80.09 125.15 78.02 123.08 73.84 123.12C78.02 123.08 80.13 120.96 80.18 116.78V116.78Z" stroke="#2F3197" stroke-width="0.54" stroke-miterlimit="10"/>
<path d="M388.55 40.53C386.25 40.53 384.38 42.44 384.38 44.8C384.38 47.16 386.25 49.07 388.55 49.07C390.85 49.07 392.72 47.16 392.72 44.8C392.72 42.44 390.85 40.53 388.55 40.53Z" stroke="#2F3197" stroke-width="0.54" stroke-miterlimit="10"/>
<path d="M379.73 122.79V233.19C379.73 239.09 374.95 243.88 369.04 243.88H341.87" stroke="#2F3197" stroke-width="0.54" stroke-miterlimit="10"/>
<path d="M258.61 162.05H318.98" stroke="#2F3197" stroke-width="0.54" stroke-linecap="round" stroke-linejoin="round"/>
<path d="M340.81 243.88H289.05" stroke="#2F3197" stroke-width="0.54" stroke-miterlimit="10"/>
<path d="M292.68 157.88C299.56 149.68 303.26 145.07 303.26 145.07L312.14 154.63" stroke="#889CFF" stroke-width="2.7" stroke-miterlimit="10"/>
<path d="M309.68 158.68L325.8 173.39C327.11 174.58 329.18 174.4 330.3 172.98C331.39 171.6 331.14 169.61 329.75 168.58L311.87 155.55L309.68 158.67V158.68Z" fill="#2F3197"/>
<path d="M306.87 162.6C305.13 163.37 303.3 163.77 301.41 163.81C299.59 163.84 297.8 163.52 296.1 162.86C294.4 162.2 292.86 161.24 291.53 159.99C290.16 158.7 289.07 157.16 288.3 155.43C287.53 153.7 287.13 151.86 287.09 149.97C287.06 148.15 287.38 146.36 288.04 144.66C288.7 142.96 289.66 141.42 290.91 140.09C292.2 138.72 293.74 137.63 295.47 136.86C297.2 136.09 299.04 135.69 300.93 135.65C302.75 135.62 304.54 135.94 306.24 136.6C307.94 137.26 309.48 138.22 310.81 139.47C312.18 140.76 313.27 142.3 314.04 144.03C314.81 145.76 315.21 147.6 315.25 149.49C315.28 151.31 314.96 153.1 314.3 154.8C313.64 156.5 312.68 158.04 311.43 159.37C310.14 160.74 308.6 161.83 306.87 162.6ZM296.47 139.1C290.61 141.69 287.95 148.57 290.54 154.43C293.13 160.29 300.01 162.95 305.87 160.36C311.73 157.77 314.39 150.89 311.8 145.03C309.21 139.17 302.33 136.51 296.47 139.1Z" fill="#4F69A6"/>
<path d="M306.97 162.83C305.2 163.61 303.33 164.03 301.41 164.06C299.56 164.09 297.74 163.77 296 163.1C294.27 162.43 292.7 161.45 291.35 160.18C289.95 158.87 288.85 157.3 288.06 155.54C287.27 153.78 286.86 151.9 286.83 149.98C286.8 148.13 287.12 146.31 287.79 144.57C288.46 142.84 289.44 141.27 290.71 139.92C292.02 138.52 293.59 137.42 295.35 136.63C297.11 135.84 298.99 135.43 300.91 135.4C302.76 135.37 304.58 135.69 306.32 136.36C308.06 137.03 309.62 138.01 310.97 139.28C312.37 140.59 313.47 142.16 314.26 143.92C315.05 145.68 315.45 147.56 315.49 149.48C315.52 151.33 315.2 153.15 314.53 154.89C313.86 156.62 312.88 158.19 311.61 159.54C310.3 160.94 308.73 162.04 306.97 162.83ZM295.58 137.08C293.87 137.84 292.37 138.9 291.1 140.25C289.88 141.55 288.93 143.06 288.28 144.74C287.63 146.41 287.32 148.17 287.35 149.96C287.38 151.81 287.78 153.61 288.53 155.32C289.28 157.03 290.35 158.54 291.7 159.8C293 161.02 294.51 161.97 296.19 162.62C297.86 163.27 299.62 163.58 301.41 163.55C303.26 163.52 305.07 163.12 306.77 162.37C308.48 161.61 309.98 160.55 311.25 159.2C312.47 157.9 313.42 156.39 314.07 154.71C314.72 153.04 315.03 151.28 315 149.49C314.97 147.64 314.57 145.83 313.82 144.13C313.07 142.43 312 140.92 310.65 139.65C309.35 138.43 307.84 137.48 306.16 136.83C304.49 136.18 302.73 135.87 300.94 135.9C299.09 135.93 297.28 136.33 295.58 137.08ZM305.98 160.58C299.99 163.23 292.97 160.51 290.32 154.53C287.67 148.54 290.39 141.52 296.37 138.87C302.35 136.22 309.38 138.94 312.03 144.92C314.68 150.9 311.96 157.93 305.98 160.58ZM296.57 139.32C290.83 141.86 288.23 148.59 290.77 154.32C293.31 160.06 300.04 162.66 305.77 160.12C311.51 157.58 314.11 150.85 311.57 145.12C309.03 139.38 302.3 136.78 296.57 139.32Z" fill="#2F3197"/>
<path d="M334.78 148.6L334.47 149.88C334.47 149.88 334.54 149.65 333.66 149.56C332.79 149.47 332.35 150.23 332.25 150.59C332.15 150.95 330.67 156.35 330.67 156.35C330.67 156.35 330.87 157.43 331.46 157.43C332.05 157.43 332.89 156.99 332.89 156.99L331.97 159.95C331.97 159.95 330.01 159.22 328.89 159.95C328.89 159.95 325.1 158.42 323.5 160.34C323.5 160.34 320.88 158.16 319.79 157.47C318.7 156.78 317.17 156.62 316.42 157.75C315.67 158.88 315.95 159.41 317.25 160.34C318.55 161.27 322.01 164.2 322.87 165.07C323.73 165.94 326.17 168.46 326.2 168.8C326.23 169.14 325.68 168.94 325.12 168.42C324.56 167.9 321.37 164.71 320.28 164.62C319.2 164.53 318 165.48 318.43 167.06C318.86 168.64 320.96 169.57 322.68 171.75C324.4 173.94 329.63 175.28 329.76 175.28C329.89 175.28 333.89 172.13 336.97 172.44C336.97 172.44 335.58 169.85 336.39 166.62C337.2 163.4 340.3 161.26 340.3 161.26C340.3 161.26 343.33 162.02 344.63 159.56C345.93 157.1 344.26 155.28 343.3 154.63C342.34 153.98 341.07 153.95 341.07 153.95C341.07 153.95 335.63 151.91 334.79 148.59L334.78 148.6Z" fill="white"/>
<path d="M340.29 161.28C340.29 161.28 336.16 164.18 336.15 168.12C336.15 172.06 337.97 174.6 339.86 175.12C341.75 175.64 345.34 175.87 346.55 179.18C347.76 182.49 348.04 186.81 348.62 188.44C349.2 190.07 350.29 193.28 355.02 194.08C359.75 194.88 363.11 192.48 365.38 188.69C367.65 184.9 368.1 181.43 367.24 176.77C366.38 172.11 365.49 169.65 363.26 166.16C361.02 162.66 358.37 160.85 357.44 159.8C356.51 158.74 355.94 158.76 356.42 157.11C356.9 155.45 359.39 152.72 359.17 149.16C358.95 145.6 358.6 143.99 350.86 141.85C350.86 141.85 348.98 139.34 344.56 138.44C340.14 137.54 336.15 138.54 334.88 141.51C333.61 144.48 334.32 148.11 335.78 150.15C337.24 152.19 341.08 153.96 341.08 153.96C341.08 153.96 345.04 153.94 345.12 157.34C345.2 160.74 342.01 161.71 340.31 161.27L340.29 161.28Z" fill="#3D4CA1"/>
<path d="M336.48 171.94C336.48 171.94 329.06 172.41 323.93 183.36C318.8 194.3 313.44 206.83 313.44 206.83L300.38 192.25C300.38 192.25 290.6 196.52 285.98 202.7C285.98 202.7 293.58 219.86 302.18 226.55C310.77 233.25 313.82 233.95 320.35 232.32L317.06 243.9L364.06 243.87C364.06 243.87 362.94 236.7 362.73 232.66C362.52 228.62 362.46 223.79 362.46 223.79C362.46 223.79 366.49 225.6 370.48 221.66C374.47 217.72 374.82 214.27 374.33 210.89C373.84 207.51 372.38 204.52 369.75 197.57C367.12 190.62 365.37 188.71 365.37 188.71C365.37 188.71 362.78 194.96 356.27 194.16C349.76 193.35 348.9 189.95 348.28 187.16C347.66 184.37 347.85 181.4 346.24 178.52C344.63 175.64 342.24 175.54 340.55 175.31C338.86 175.08 336.5 173.26 336.48 171.96V171.94Z" fill="#7380D1"/>
<path d="M305.4 228.95C305.4 228.95 308.4 222.52 315.98 222.56C323.56 222.59 326.47 228.48 326.47 228.48C326.47 228.48 322.92 233.51 315.5 233.06C308.87 232.66 305.39 228.96 305.39 228.96L305.4 228.95Z" fill="#2F3197"/>
<path d="M269.53 180.51H263.25C262.908 180.51 262.63 180.788 262.63 181.13V187.41C262.63 187.752 262.908 188.03 263.25 188.03H269.53C269.872 188.03 270.15 187.752 270.15 187.41V181.13C270.15 180.788 269.872 180.51 269.53 180.51Z" fill="#00C18E"/>
<path d="M264.66 197.28H258.38C258.038 197.28 257.76 197.558 257.76 197.9V204.18C257.76 204.522 258.038 204.8 258.38 204.8H264.66C265.002 204.8 265.28 204.522 265.28 204.18V197.9C265.28 197.558 265.002 197.28 264.66 197.28Z" fill="#2F3197"/>
<path d="M267.91 182.13H261.63C261.288 182.13 261.01 182.408 261.01 182.75V189.03C261.01 189.372 261.288 189.65 261.63 189.65H267.91C268.252 189.65 268.53 189.372 268.53 189.03V182.75C268.53 182.408 268.252 182.13 267.91 182.13Z" stroke="#2F3197" stroke-width="0.54" stroke-miterlimit="10"/>
<path d="M267.37 194.57H261.09C260.748 194.57 260.47 194.848 260.47 195.19V201.47C260.47 201.812 260.748 202.09 261.09 202.09H267.37C267.712 202.09 267.99 201.812 267.99 201.47V195.19C267.99 194.848 267.712 194.57 267.37 194.57Z" stroke="#2F3197" stroke-width="0.54" stroke-miterlimit="10"/>
<path d="M344.55 138.44C340.13 137.54 336.14 138.54 334.87 141.51C333.6 144.48 334.31 148.11 335.77 150.15C336.4 151.04 337.49 151.87 338.51 152.53C337.63 150.88 332.62 140.42 346.08 138.83C345.61 138.68 345.11 138.54 344.56 138.43L344.55 138.44Z" fill="#2F3197"/>
<path d="M341.18 175.41C335.56 169.63 341.88 161.36 341.88 161.36C341.26 161.41 340.73 161.39 340.29 161.28C340.29 161.28 336.16 164.18 336.15 168.12C336.15 172.06 337.97 174.6 339.86 175.12C340.25 175.23 340.71 175.32 341.2 175.43C341.2 175.43 341.19 175.42 341.18 175.41V175.41Z" fill="#2F3197"/>
<path d="M316.01 233.35C304.33 233.35 292.24 217.88 285.68 202.82C285.74 202.46 288.25 199.22 292.15 196.56C297.33 193.04 300.15 191.98 300.26 191.93C300.76 192.16 315.78 207.25 320.4 216.52C315.48 208.14 301.88 194.24 300.29 192.62C299.57 192.92 296.86 194.13 292.51 197.09C289.17 199.36 286.88 202.07 286.35 202.73C293.17 218.27 305.83 234.18 317.67 232.58C330.23 230.86 335.54 214.6 341.19 193.52C336.11 215 330.71 231.45 317.76 233.22C317.18 233.3 316.59 233.34 316.01 233.34V233.35Z" fill="#2F3197"/>
<path d="M313.44 207.15C314.56 203.55 315.86 200.45 317.12 197.45C322.88 183.75 327.42 172.93 336.6 172.12C327.88 173.55 323.4 184.21 317.72 197.7C316.46 200.7 315.16 203.8 313.74 206.95C313.69 207.07 313.57 207.14 313.44 207.14V207.15Z" fill="#2F3197"/>
<path d="M336.15 166.96C334.2 166.78 332.84 166.07 332.07 164.84C330.63 162.56 331.8 159.35 331.85 159.22L334.47 148.52C335.1 148.68 332.48 159.41 332.48 159.41C332.46 159.48 331.37 162.49 332.63 164.49C333.29 165.53 334.48 166.14 336.18 166.3C336.46 166.83 336.32 166.95 336.15 166.95V166.96Z" fill="#2F3197"/>
<path d="M331.75 157.8C330.62 157.54 330.18 156.76 330.39 156.01L332.01 150.22C332.22 149.47 333.01 149.03 333.75 149.24C334.12 149.35 334.38 149.53 334.53 149.79C334.68 150.05 334.7 150.37 334.59 150.74C334.07 150.16 333.97 149.98 333.57 149.87C332.64 150.4 331.01 156.18 331.01 156.18C331.93 157.22 332.35 156.99 332.47 156.59C332.93 157.39 332.36 157.8 331.74 157.8H331.75Z" fill="#2F3197"/>
<path d="M329.89 175.61C329.72 175.56 329.26 175.37 327.34 174.87C324.13 174.03 322.75 172.39 321.42 170.81L320.97 170.29C320.64 169.9 320.22 169.51 319.82 169.14C318.83 168.22 317.89 167.35 317.9 166.31C317.9 165.76 318.18 165.25 318.73 164.75C319.12 164.4 319.59 164.23 320.11 164.27C321.63 164.36 323.27 166.03 323.9 166.75C324.51 167.44 325.03 167.94 325.4 168.25C324.85 167.54 323.73 166.42 322.92 165.6L322.22 164.9C321.46 164.12 319.99 163.03 318.7 162.06C317.48 161.15 316.43 160.37 316.03 159.91C315.56 159.38 315.59 158.47 316.08 157.65C316.51 156.94 317.35 156.27 318.4 156.53C320.01 156.92 322.03 158.68 323.12 159.62C323.82 159.7 324.29 159.26 325.15 159.11C327.08 158.78 328.13 159.27 328.56 159.55C328.89 159.35 329.56 159.03 330.37 159.18C330.8 159.26 331.56 159.49 331.94 159.65C331.35 160.11 330.63 159.89 330.25 159.82C329.43 159.68 328.75 160.2 328.75 160.21C328.31 160.18 327.45 159.37 325.26 159.75C324.6 159.86 324.25 160.19 324.02 160.41C323.85 160.57 323.59 160.81 323.3 160.62C323.2 160.55 322.98 160.37 322.69 160.11C321.72 159.27 319.71 157.51 318.25 157.16C317.54 156.99 316.95 157.47 316.64 157.98C316.3 158.54 316.25 159.17 316.52 159.48C316.88 159.89 317.95 160.69 319.09 161.54C320.4 162.52 321.88 163.63 322.68 164.44L323.38 165.14C325.19 166.96 326.3 168.11 326.37 168.71C325.97 169.3 325.48 169.52 323.41 167.18C322.2 165.82 320.95 164.97 320.07 164.92C319.7 164.89 319.42 165 319.16 165.23C318.75 165.6 318.55 165.95 318.54 166.31C318.54 167.06 319.37 167.83 320.25 168.65C320.67 169.04 321.1 169.44 321.45 169.85L321.9 170.38C323.22 171.95 324.47 173.44 327.49 174.23C329.5 174.75 329.96 174.96 330.01 174.98C330.11 175.53 329.99 175.6 329.87 175.6L329.89 175.61Z" fill="#2F3197"/>
<path d="M327.79 164.73C326.5 163.05 323.33 160.63 323.3 160.6C323.83 160.18 326.99 162.6 328.06 164.22C327.91 164.71 327.85 164.73 327.79 164.73Z" fill="#2F3197"/>
<path d="M331.63 162.93C330.21 161.56 328.39 160.24 328.37 160.22C328.83 159.75 330.64 161.07 331.86 162.38C331.78 162.9 331.7 162.93 331.62 162.93H331.63Z" fill="#2F3197"/>
<path d="M356.79 194.56C355.73 194.56 354.65 194.41 353.63 194.09C351.33 193.37 349.63 191.94 348.83 190.06C348.11 188.36 347.83 186.52 347.56 184.73C347.5 184.33 347.44 183.94 347.38 183.54C346.9 180.62 346.14 177.76 343.8 176.63C343.08 176.28 342.29 176.1 341.54 175.93C340.3 175.65 339.03 175.35 337.95 174.32C336.49 172.9 335.75 170.86 335.82 168.42C335.97 163.14 340.32 161.05 340.36 161.03C340.47 161.7 336.61 163.57 336.48 168.44C336.44 170.01 336.74 172.23 338.41 173.85C339.35 174.76 340.49 175.02 341.69 175.3C342.48 175.48 343.3 175.67 344.09 176.05C346.7 177.31 347.53 180.35 348.03 183.45C348.09 183.85 348.15 184.25 348.22 184.65C348.48 186.39 348.75 188.2 349.44 189.82C350.16 191.52 351.72 192.82 353.83 193.48C356.4 194.28 359.35 193.98 361.34 192.72C362.61 191.91 363.77 190.68 364.79 189.06C367.47 184.77 367.94 180.53 366.4 174.43C364.6 167.28 361.77 164.52 358.77 161.59C358.1 160.93 357.4 160.26 356.71 159.52C356.35 159.13 355.97 158.65 355.93 158.05C355.89 157.3 356.33 156.48 356.68 155.82C357.46 154.31 357.8 153.64 358.06 152.97C358.8 151.02 359.02 149.16 358.71 147.44C358.02 143.6 350.96 142.03 350.89 142.01C347.38 138.95 341.48 137.19 337.42 139.42C333.52 141.57 334.55 146.23 334.56 146.27C334.56 146.55 334.58 151.17 341.77 153.89C333.9 151.6 333.91 146.55 333.92 146.34C333.92 146.34 332.79 141.22 337.11 138.85C341.39 136.49 347.57 138.28 351.12 141.39C351.99 141.59 358.62 143.25 359.36 147.32C359.69 149.17 359.47 151.14 358.68 153.2C358.41 153.91 358.06 154.58 357.73 155.24C356.96 156.71 356.56 157.44 356.6 158.01C356.62 158.4 356.92 158.77 357.2 159.07C357.88 159.8 358.57 160.47 359.24 161.12C362.3 164.11 365.2 166.94 367.04 174.26C368.63 180.56 368.14 184.95 365.35 189.4C364.28 191.1 363.06 192.4 361.7 193.26C360.35 194.12 358.6 194.56 356.81 194.56H356.79Z" fill="#2F3197"/>
<path d="M305.63 229.28C307.01 224.76 311.1 222.23 316.02 222.23C320.94 222.23 324.83 224.68 326.62 228.63C324.33 225.19 320.5 222.88 316.02 222.88C311.54 222.88 307.51 225.25 305.93 229.07C305.88 229.2 305.76 229.27 305.63 229.27V229.28Z" fill="#2F3197"/>
<path d="M299.05 192.72C299.05 192.72 297.43 191.33 296.89 188.63C296.35 185.93 296.07 181.67 295.27 181.15C294.47 180.63 292.53 179.68 292.09 181.9C291.65 184.11 292.89 185.73 292.71 187.14C292.52 188.54 292.22 189.21 291.32 189.26C290.42 189.31 289.46 188.66 288.21 187.36C286.96 186.06 285.21 183.53 284.15 181.9C283.1 180.27 281.77 179 280.56 179.71C279.34 180.42 279.44 182.1 279.44 182.1C279.44 182.1 278.6 181.5 277.46 182.25C276.32 183 276.97 184.21 276.97 184.21C276.97 184.21 275.28 184.54 275.24 186.87C275.2 189.2 279.42 194.46 280.57 195.81C281.71 197.16 285.25 201.07 286.98 201.53C286.98 201.53 289.45 198.67 292.49 196.82C295.53 194.96 299.05 192.73 299.05 192.73V192.72Z" fill="white"/>
<path d="M286.14 200.81C286.14 200.81 286.07 200.76 286.05 200.72C281.82 198.26 275.79 189.19 275.56 186.83C275.41 185.2 276.88 184.84 277.15 184.34C276.77 183.68 276.93 183.01 277.57 182.56C277.8 182.39 278.03 182.29 278.43 182.23C278.71 182.23 279.01 182.35 279.32 182.61V182.64C279.32 182.64 279.41 182.61 279.46 182.6H279.44C279.55 182.58 279.66 182.55 279.77 182.51C279.82 182.49 279.87 182.45 279.92 182.42C279.86 182.27 279.82 182.17 279.82 182.16C279.26 181.69 278.71 181.5 278.14 181.6C277.83 181.66 277.51 181.8 277.2 182.03C276.4 182.6 276.12 183.47 276.43 184.31C275.7 184.62 274.78 185.41 274.92 186.9C275.18 189.7 282.32 200.19 286.85 201.8C286.93 201.8 287.02 201.76 287.15 201.39C286.8 201.23 286.49 200.98 286.15 200.82L286.14 200.81Z" fill="#2F3197"/>
<path d="M296.54 185.06C296.39 184.06 296.23 183.03 296 182.07C295.89 181.6 295.74 181.12 295.38 180.77C294.97 180.37 294.39 180.25 293.89 180.18C293.2 180.09 292.66 180.25 292.29 180.65C291.32 181.7 291.81 184.12 292.17 185.89C292.29 186.47 292.39 186.96 292.4 187.25C292.42 187.61 292.41 188.12 292.17 188.5C292 188.77 291.79 188.9 291.51 188.92C290.48 189.01 288.64 187.44 287.31 185.95C286.51 185.06 285.27 183.22 284.45 182.01C284.19 181.62 283.97 181.3 283.82 181.08C283.02 179.94 281.81 178.23 279.89 179.42C279.32 179.77 278.98 180.22 278.88 180.74C278.68 181.79 279.49 182.89 280.41 184.14C281.15 185.23 283.71 188.46 285.05 189.76C285.11 189.78 285.2 189.42 285.24 189.24C285.26 189.16 285.24 189.08 285.18 189.02C283.94 187.7 281.6 184.72 280.61 183.31C280.09 182.6 279.37 181.63 279.52 180.87C279.59 180.53 279.82 180.24 280.23 179.98C281.41 179.24 282.18 179.9 283.28 181.46C283.43 181.67 283.65 182 283.91 182.38C284.74 183.61 285.99 185.46 286.82 186.39C287.71 187.39 289.92 189.68 291.56 189.58C292.04 189.54 292.44 189.29 292.72 188.86C293.06 188.33 293.07 187.67 293.05 187.23C293.03 186.89 292.93 186.37 292.8 185.77C292.49 184.23 292.02 181.91 292.76 181.1C292.98 180.86 293.33 180.77 293.8 180.83C294.2 180.88 294.64 180.97 294.92 181.24C295.15 181.46 295.26 181.79 295.36 182.22C295.58 183.16 295.74 184.13 295.9 185.16C296.29 187.66 296.69 190.24 298.18 192.3C298.18 192.3 299.02 193.16 299.05 193.16C299.17 193.16 299.27 193.1 299.29 192.61C297.4 190.6 296.97 187.78 296.55 185.06H296.54Z" fill="#2F3197"/>
<path d="M282.58 192.62C282.33 192.5 280.92 190.83 279.35 188.94C278.21 187.57 277.01 185.43 276.67 184.82C277.17 184.37 278.58 186.99 279.85 188.52C281.42 190.41 282.82 192.08 282.82 192.08C282.94 192.49 282.64 192.62 282.57 192.62H282.58Z" fill="#2F3197"/>
<path d="M364.06 243.86C364.06 243.86 362.21 231.55 362.46 223.78C362.71 216.01 362.44 210.8 362.44 210.8" stroke="#2F3197" stroke-width="0.54" stroke-linecap="round" stroke-linejoin="round"/>
<path d="M365.38 188.7C365.38 188.7 369.86 197.62 371.42 202.22C372.63 205.78 374.63 209.66 374.54 213.5C374.44 217.89 371.29 221.98 367.22 223.54C365.73 224.11 364.04 223.83 362.46 223.78" stroke="#2F3197" stroke-width="0.54" stroke-linecap="round" stroke-linejoin="round"/>
<path d="M260.16 148.68L280.53 171.93C280.53 171.93 285.66 165.88 290.79 159.76" stroke="#2F3197" stroke-width="0.54" stroke-linecap="round" stroke-linejoin="round"/>
<path d="M303.76 151.39C306.301 151.39 308.36 149.331 308.36 146.79C308.36 144.249 306.301 142.19 303.76 142.19C301.219 142.19 299.16 144.249 299.16 146.79C299.16 149.331 301.219 151.39 303.76 151.39Z" fill="#00C18E"/>
<path d="M72.05 111.64C73.392 111.64 74.48 110.552 74.48 109.21C74.48 107.868 73.392 106.78 72.05 106.78C70.7079 106.78 69.62 107.868 69.62 109.21C69.62 110.552 70.7079 111.64 72.05 111.64Z" stroke="#2F3197" stroke-width="0.54" stroke-miterlimit="10"/>
</svg>
